HIERARCHY
ROOT Hips
{
	OFFSET 0.000000 0.000000 0.000000 
	CHANNELS 6 Xposition Yposition Zposition Zrotation Yrotation Xrotation
	JOINT LeftUpLeg
	{
		OFFSET 1.363060 -1.794630 0.839290 
		CHANNELS 3 Zrotation Yrotation Xrotation
		JOINT LeftLeg
		{
			OFFSET 2.448110 -6.726130 0.000000 
			CHANNELS 3 Zrotation Yrotation Xrotation
			JOINT LeftFoot
			{
				OFFSET 2.562200 -7.039590 0.000000 
				CHANNELS 3 Zrotation Yrotation Xrotation
				JOINT LeftToeBase
				{
					OFFSET 0.157640 -0.433110 2.322550 
					CHANNELS 3 Zrotation Yrotation Xrotation
					End Site
					{
						OFFSET 0.000000 0.000000 0.000000 
					}
				}
			}
		}
	}
	JOINT RightUpLeg
	{
		OFFSET -1.305520 -1.794630 0.839290 
		CHANNELS 3 Zrotation Yrotation Xrotation
		JOINT RightLeg
		{
			OFFSET -2.542530 -6.985550 0.000000 
			CHANNELS 3 Zrotation Yrotation Xrotation
			JOINT RightFoot
			{
				OFFSET -2.568260 -7.056230 0.000000 
				CHANNELS 3 Zrotation Yrotation Xrotation
				JOINT RightToeBase
				{
					OFFSET -0.164730 -0.452590 2.363150 
					CHANNELS 3 Zrotation Yrotation Xrotation
					End Site
					{
						OFFSET 0.000000 0.000000 0.000000 
					}
				}
			}
		}
	}
	JOINT Spine
	{
		OFFSET 0.028270 2.035590 -0.193380 
		CHANNELS 3 Zrotation Yrotation Xrotation
		JOINT Spine1
		{
			OFFSET 0.056720 2.048850 -0.042750 
			CHANNELS 3 Zrotation Yrotation Xrotation
			JOINT Neck1
			{
				OFFSET -0.054170 1.746240 0.172020 
				CHANNELS 3 Zrotation Yrotation Xrotation
				JOINT Head
				{
					OFFSET 0.104070 1.761360 -0.123970 
					CHANNELS 3 Zrotation Yrotation Xrotation
					End Site
					{
						OFFSET 0.000000 0.000000 0.000000 
					}
				}
			}
			JOINT LeftArm
			{
				OFFSET 3.362410 1.200890 -0.311210 
				CHANNELS 3 Zrotation Yrotation Xrotation
				JOINT LeftForeArm
				{
					OFFSET 4.983000 -0.000000 -0.000000 
					CHANNELS 3 Zrotation Yrotation Xrotation
					JOINT LeftHand
					{
						OFFSET 3.483560 -0.000000 -0.000000 
						CHANNELS 3 Zrotation Yrotation Xrotation
						JOINT LeftHandIndex1
						{
							OFFSET 0.715260 -0.000000 -0.000000 
							CHANNELS 3 Zrotation Yrotation Xrotation
							End Site
							{
								OFFSET 0.000000 0.000000 0.000000 
							}
						}
					}
				}
			}
			JOINT RightArm
			{
				OFFSET -3.136600 1.374050 -0.404650 
				CHANNELS 3 Zrotation Yrotation Xrotation
				JOINT RightForeArm
				{
					OFFSET -5.241900 -0.000000 -0.000000 
					CHANNELS 3 Zrotation Yrotation Xrotation
					JOINT RightHand
					{
						OFFSET -3.444170 -0.000000 -0.000000 
						CHANNELS 3 Zrotation Yrotation Xrotation
						JOINT RightHandIndex1
						{
							OFFSET -0.622530 -0.000000 -0.000000 
							CHANNELS 3 Zrotation Yrotation Xrotation
							End Site
							{
								OFFSET 0.000000 0.000000 0.000000 
							}
						}
					}
				}
			}
		}
	}
}
MOTION
Frames: 13
Frame Time: 0.041667
34.333658 17.334938 0.785439 173.786856 -70.902081 -174.419853 -17.470940 0.583209 -7.415108 0.662229 10.622704 30.013364 -2.484017 13.294265 -16.772002 0.224000 -3.046400 -8.407900 13.805958 6.134397 -8.857467 -1.210728 -11.175701 31.600757 4.094369 -17.238875 -14.398722 -0.603500 4.972800 -13.830900 0.531934 -0.059989 -2.158215 5.059138 -0.493843 5.315385 8.332090 -14.260073 4.614387 11.811500 -5.617400 -2.671900 -91.786430 -2.310733 18.735238 3.983056 -18.965212 -1.657832 -0.605757 -0.312785 7.977238 -7.125000 0.000000 0.000000 86.452109 1.387275 15.874031 -10.787071 25.048889 -3.919665 0.330043 -1.181765 9.456951 7.125000 0.000000 0.000000 
34.334998 17.335050 0.782759 173.569673 -70.974904 -174.203271 -17.501564 0.637105 -7.466980 0.651942 10.604043 29.941555 -2.553314 13.449539 -16.543252 0.263000 -3.299200 -9.113000 13.739022 5.994436 -8.947968 -1.235346 -11.193104 31.651934 4.172798 -17.434351 -14.226942 -0.694400 5.326900 -14.843400 0.532952 -0.106833 -2.166859 5.054161 -0.519812 5.275808 8.218226 -14.057707 4.767606 11.668700 -5.557400 -2.614700 -91.785879 -2.451453 18.888790 3.866949 -18.797458 -1.617823 -0.607351 -0.297021 7.668239 -7.125000 0.000000 0.000000 86.468417 1.344636 15.898923 -10.770460 25.024911 -3.911004 0.328901 -1.187942 9.420400 7.125000 0.000000 0.000000 
34.338906 17.333933 0.780191 173.563039 -71.069705 -174.186606 -17.445175 0.625731 -7.519958 0.652344 10.603730 29.933346 -2.532289 13.335528 -16.403492 0.244200 -3.180200 -8.780800 13.757970 5.902256 -9.003510 -1.249628 -11.200501 31.664682 4.279215 -17.723714 -14.065336 -0.785800 5.659000 -15.798300 0.540076 -0.160220 -2.175790 5.045509 -0.551672 5.238244 8.059753 -13.862395 4.929027 11.451700 -5.503700 -2.545200 -91.803947 -2.598334 19.249586 3.836064 -18.759535 -1.603710 -0.612753 -0.282763 6.910612 -7.125000 0.000000 0.000000 86.494925 1.298240 15.923350 -10.788952 25.038124 -3.916749 0.322563 -1.185643 9.413167 7.125000 0.000000 0.000000 
34.340916 17.333263 0.777288 173.649287 -71.100617 -174.259083 -17.381065 0.664209 -7.536800 0.649502 10.596532 29.908781 -2.500425 13.206551 -16.331930 0.233500 -3.110100 -8.585600 13.801398 5.829402 -9.046436 -1.258703 -11.213285 31.711802 4.250561 -17.645387 -14.086039 -0.766900 5.592200 -15.605700 0.593173 -0.398888 -2.174224 5.524871 -0.706835 5.390845 7.887468 -13.384006 5.143953 11.380800 -5.278900 -2.403600 -92.332071 -2.815976 18.717833 3.821527 -18.814315 -1.624523 -0.600742 -0.245870 7.028497 -7.125000 0.000000 0.000000 85.993660 1.440874 16.479359 -10.771059 25.008171 -3.898554 0.335496 -1.175495 9.380248 7.125000 0.000000 0.000000 
34.341586 17.333151 0.773045 173.627147 -71.110353 -174.205145 -17.368336 0.722021 -7.561605 0.645330 10.587682 29.878299 -2.508855 13.215799 -16.277833 0.251200 -3.225000 -8.905800 13.798212 5.753872 -9.118004 -1.269768 -11.232370 31.769739 4.205224 -17.511213 -14.098168 -0.749000 5.528000 -15.420800 0.606881 -0.469062 -2.164445 5.639317 -0.762760 5.555966 7.762280 -13.053165 5.275183 11.258200 -5.132600 -2.343600 -92.471677 -3.022217 18.356412 3.772994 -18.763688 -1.623705 -0.591091 -0.247372 7.694880 -7.125000 0.000000 0.000000 85.887964 1.612303 16.535125 -10.699350 24.913385 -3.863618 0.347096 -1.175463 9.502606 7.125000 0.000000 0.000000 
34.343038 17.331030 0.768578 173.170562 -71.092998 -173.740727 -17.504425 0.705726 -7.560345 0.635366 10.586117 29.859902 -2.466768 13.104954 -16.343389 0.224100 -3.047300 -8.410500 13.637066 5.616816 -9.214483 -1.282773 -11.244738 31.823169 4.124886 -17.264704 -14.145654 -0.721200 5.426600 -15.129400 0.598739 -0.443519 -2.151015 5.671572 -0.772087 5.714359 7.727518 -12.846184 5.319648 11.157800 -5.039500 -2.302100 -92.458633 -3.212127 18.452785 3.775714 -18.785529 -1.628388 -0.588258 -0.253349 7.912841 -7.125000 0.000000 0.000000 85.928545 1.848960 16.378823 -10.605858 24.774142 -3.819991 0.354480 -1.179098 9.636535 7.125000 0.000000 0.000000 
34.344154 17.327010 0.765005 172.855793 -71.073771 -173.437473 -17.597216 0.712387 -7.552597 0.628581 10.583805 29.841815 -2.449025 13.057355 -16.360701 0.206400 -2.925100 -8.070200 13.524370 5.497299 -9.267935 -1.293311 -11.256355 31.868736 4.059333 -17.068302 -14.191991 -0.702900 5.358700 -14.934500 0.577607 -0.373036 -2.123167 5.556460 -0.751549 5.921444 7.773035 -12.635258 5.281269 11.144900 -4.930100 -2.324900 -92.337438 -3.423198 18.870829 3.874587 -18.910577 -1.646302 -0.590813 -0.261915 7.771854 -7.125000 0.000000 0.000000 86.055610 2.083829 16.239205 -10.555833 24.711868 -3.798996 0.356210 -1.171199 9.660936 7.125000 0.000000 0.000000 
34.342479 17.329020 0.761432 173.058352 -71.098587 -173.573369 -17.500978 0.872974 -7.656920 0.632907 10.576770 29.817049 -2.496334 13.139238 -16.136986 0.244200 -3.180000 -8.780300 13.587567 5.425124 -9.347490 -1.302465 -11.273835 31.885757 4.129419 -17.247473 -14.013760 -0.778700 5.634000 -15.726200 0.554084 -0.324021 -2.089299 5.259905 -0.724352 6.219332 7.800247 -12.279413 5.321017 11.148600 -4.764100 -2.324300 -92.104119 -3.659850 19.388734 4.018801 -19.058734 -1.667177 -0.591963 -0.286588 7.464124 -7.125000 0.000000 0.000000 86.298715 2.329103 16.035490 -10.496573 24.674020 -3.782195 0.351569 -1.166946 9.753099 7.125000 0.000000 0.000000 
34.338348 17.333263 0.757970 173.340304 -71.089290 -173.769046 -17.382210 1.014409 -7.756382 0.641541 10.576284 29.824848 -2.481360 13.054067 -16.039066 0.248300 -3.206600 -8.854500 13.668056 5.270358 -9.496307 -1.322908 -11.284917 31.857406 4.395733 -17.944907 -13.468018 -1.069200 6.573300 -18.457200 0.543800 -0.319310 -2.083303 5.069837 -0.713453 6.385358 7.689215 -11.817733 5.606937 11.032800 -4.593700 -2.147300 -91.962386 -3.740979 19.751391 4.139277 -19.194163 -1.688454 -0.589722 -0.306382 7.041678 -7.125000 0.000000 0.000000 86.444591 2.428038 15.874272 -10.404749 24.589241 -3.751404 0.342943 -1.177762 9.938621 7.125000 0.000000 0.000000 
34.334105 17.331476 0.755179 173.436765 -71.038544 -173.876408 -17.340722 1.048207 -7.774139 0.651799 10.585346 29.866285 -2.477048 13.053448 -16.091786 0.239400 -3.148800 -8.693300 13.689949 5.131622 -9.565672 -1.340525 -11.283731 31.829887 4.581064 -18.425977 -13.061720 -1.319000 7.274100 -20.530000 0.542332 -0.323921 -2.114462 4.961967 -0.701279 6.180999 7.431606 -11.575102 5.907446 10.735700 -4.548000 -1.985100 -91.918309 -3.463426 20.166705 4.326434 -19.451537 -1.737896 -0.595072 -0.316814 6.525652 -7.125000 0.000000 0.000000 86.511632 2.199009 15.816962 -10.357573 24.528721 -3.731917 0.335109 -1.190137 10.065169 7.125000 0.000000 0.000000 
34.332653 17.328350 0.753057 173.545887 -71.041216 -173.952051 -17.296599 1.090253 -7.850545 0.662820 10.600471 29.900618 -2.548157 13.250936 -15.981625 0.282900 -3.420700 -9.452300 13.714050 5.119082 -9.563291 -1.325894 -11.287028 31.850425 4.392697 -17.897413 -13.280364 -1.136800 6.771400 -19.039800 0.532109 -0.305269 -2.082171 4.799121 -0.699044 6.487415 7.365496 -11.339618 5.996843 10.642500 -4.443300 -1.944700 -91.852465 -3.684031 20.580765 4.438634 -19.596177 -1.766363 -0.595832 -0.341454 6.297696 -7.125000 0.000000 0.000000 86.608605 2.414041 15.743109 -10.282198 24.465091 -3.703978 0.340951 -1.188401 10.164893 7.125000 0.000000 0.000000 
34.335110 17.326452 0.750042 173.700672 -70.992696 -174.159384 -17.218436 1.254830 -7.896889 0.681601 10.608998 29.946228 -2.544039 13.200061 -15.863477 0.305300 -3.552500 -9.821000 13.755884 5.078925 -9.550954 -1.320718 -11.289702 31.890885 4.202550 -17.347050 -13.418242 -0.962900 6.247900 -17.505400 0.544097 -0.330722 -2.130384 4.906589 -0.700892 6.106352 7.201546 -10.914533 6.206305 10.493900 -4.285200 -1.836500 -92.086507 -3.411889 20.295248 4.514322 -19.687357 -1.797892 -0.604292 -0.320019 6.653206 -7.125000 0.000000 0.000000 86.549453 2.094643 15.803341 -10.309502 24.461969 -3.707663 0.339921 -1.184982 10.177748 7.125000 0.000000 0.000000 
34.338795 17.324553 0.746804 173.764951 -70.921178 -174.268824 -17.175624 1.454314 -7.903319 0.698290 10.619217 29.996713 -2.456989 12.910499 -15.839992 0.280300 -3.404900 -9.408200 13.773303 4.989241 -9.563285 -1.331873 -11.300962 31.922871 4.204817 -17.334603 -13.313639 -1.006700 6.384300 -17.903500 0.542641 -0.323029 -2.115481 4.907435 -0.707773 6.158134 7.147207 -10.603488 6.237489 10.434300 -4.138500 -1.897300 -92.167516 -3.514477 20.119216 4.569226 -19.749818 -1.813407 -0.604238 -0.306374 6.977823 -7.125000 0.000000 0.000000 86.585245 2.200723 15.686479 -10.223841 24.349435 -3.672553 0.335721 -1.194308 10.418023 7.125000 0.000000 0.000000 
